<?xml version="1.0" standalone="no"?>
<!DOCTYPE svg PUBLIC "-//W3C//DTD SVG 20010904//EN"
 "http://www.w3.org/TR/2001/REC-SVG-20010904/DTD/svg10.dtd">
<svg version="1.0" xmlns="http://www.w3.org/2000/svg"
 width="4000.000000pt" height="4000.000000pt" viewBox="0 0 4000.000000 4000.000000"
 preserveAspectRatio="xMidYMid meet">

<g transform="translate(0.000000,4000.000000) scale(0.100000,-0.100000)"
fill="#000000" stroke="none">
<path d="M18005 32167 c-1127 -3400 -2170 -6547 -2318 -6992 l-268 -811 -1556
4 c-1518 4 -1556 4 -1549 -14 23 -58 28 -127 17 -197 -14 -82 -39 -143 -110
-260 -152 -253 -252 -532 -276 -768 -10 -101 -20 -152 -39 -197 -34 -80 -33
-137 3 -242 44 -127 44 -174 1 -223 -55 -63 -135 -86 -380 -111 -121 -13 -174
-24 -320 -70 -243 -75 -317 -90 -435 -90 -104 0 -170 19 -219 62 -27 24 -56
91 -56 132 0 87 97 208 208 257 31 14 107 44 168 68 191 74 214 90 214 152 0
71 -76 110 -194 100 -97 -9 -170 -37 -270 -105 -101 -70 -133 -82 -332 -126
-210 -47 -264 -52 -339 -32 -33 8 -119 29 -191 45 -144 32 -181 48 -295 126
-104 72 -161 90 -279 90 -83 0 -99 -3 -127 -23 -58 -41 -56 -108 4 -148 18
-12 92 -45 165 -74 235 -94 289 -128 338 -214 76 -132 28 -258 -114 -298 -99
-28 -278 -6 -476 57 -205 66 -282 85 -393 95 -314 30 -417 79 -417 200 0 25
14 83 30 130 38 108 39 170 4 252 -19 46 -28 90 -35 185 -19 238 -113 517
-260 774 -79 138 -158 391 -133 430 6 10 -524 11 -2411 6 -1330 -4 -2959 -7
-3619 -7 -1177 0 -1200 0 -1181 -19 25 -23 10902 -8070 10914 -8073 4 -2 36
38 69 88 104 155 225 256 462 384 63 35 157 86 209 114 234 127 271 213 255
586 -19 432 -9 676 37 955 24 144 98 477 108 488 11 12 152 25 392 38 615 32
1190 -66 1672 -283 262 -118 445 -235 820 -527 135 -105 187 -151 187 -166 -1
-31 -34 -97 -70 -139 -18 -20 -86 -68 -151 -107 -225 -132 -323 -261 -263
-347 32 -46 145 -21 257 56 23 17 94 76 157 131 187 165 398 284 570 321 50
11 159 40 241 64 239 72 362 96 541 106 731 42 1611 -180 2321 -584 477 -271
1189 -796 1536 -1131 l113 -110 262 -1 c267 -1 400 -10 636 -45 733 -107 1434
-380 2052 -801 355 -242 662 -552 1027 -1038 141 -186 196 -285 249 -446 47
-140 63 -227 69 -380 7 -166 -6 -248 -68 -424 -75 -213 -79 -252 -27 -295 67
-57 171 -54 263 7 98 65 127 151 181 536 25 180 66 370 135 627 124 461 259
843 496 1409 241 576 297 727 327 886 14 70 27 208 91 935 45 504 74 702 174
1195 69 340 85 475 78 680 -6 183 -24 268 -79 372 -97 183 -216 230 -453 178
-307 -67 -352 -64 -715 45 -96 28 -149 38 -227 42 -130 7 -157 1 -234 -49
-102 -66 -157 -82 -279 -81 -115 0 -204 15 -444 74 -184 45 -268 56 -311 39
-16 -6 -73 -42 -126 -80 -118 -85 -144 -97 -267 -115 -318 -48 -702 30 -817
167 -121 144 -81 286 124 437 36 27 130 86 209 131 78 45 142 86 142 90 0 21
-129 122 -235 185 -64 39 -130 85 -146 102 -63 72 -61 152 7 294 57 119 116
192 334 414 251 256 267 275 420 500 148 218 190 273 265 349 126 128 230 170
415 170 128 -1 172 -8 405 -64 88 -22 347 -78 575 -125 1132 -235 1717 -388
2170 -567 311 -123 451 -210 626 -390 330 -337 534 -689 616 -1063 16 -73 21
-140 25 -350 4 -225 1 -308 -23 -610 -35 -439 -39 -826 -11 -1060 39 -321 192
-1299 234 -1497 l8 -37 490 360 c270 198 555 409 635 468 80 59 2198 1616
4707 3461 2510 1844 4560 3356 4557 3359 -3 3 -3301 24 -7329 46 -4028 22
-7326 43 -7328 45 -3 4 -2185 6448 -3307 9770 -604 1786 -1460 4313 -1462
4316 -2 1 -925 -2779 -2053 -6179z m-7898 -10328 c81 -30 215 -223 257 -370 9
-29 27 -116 41 -191 43 -237 94 -362 177 -436 134 -120 170 -176 176 -277 4
-54 1 -64 -23 -93 -58 -70 -136 -52 -247 56 -74 72 -80 76 -131 80 -72 6 -112
-16 -207 -112 -96 -97 -104 -98 -190 -7 -89 95 -130 121 -192 121 -62 0 -97
-18 -144 -75 -40 -50 -100 -89 -150 -100 -68 -14 -134 42 -134 113 0 86 63
199 147 262 101 77 147 176 207 445 58 264 115 398 209 502 77 83 137 108 204
82z"/>
<path d="M19470 15594 c-14 -2 -59 -9 -100 -15 -265 -38 -680 -250 -1021 -520
-424 -336 -822 -762 -1051 -1124 -99 -157 -283 -536 -453 -930 -347 -805 -519
-1093 -939 -1575 -132 -151 -450 -474 -601 -610 -345 -309 -710 -560 -1000
-688 -194 -86 -646 -227 -975 -306 -300 -72 -624 -127 -920 -158 -190 -20
-674 -16 -830 5 -421 59 -602 136 -806 342 l-91 92 -72 -226 c-39 -124 -100
-314 -135 -422 l-63 -196 56 29 c80 40 177 51 461 51 534 -1 1119 -72 1510
-184 563 -161 787 -529 614 -1009 -103 -288 -361 -631 -634 -841 -151 -117
-206 -140 -450 -189 -232 -47 -408 -64 -655 -64 -303 1 -480 32 -651 114 -141
68 -232 169 -261 289 -18 77 -30 350 -23 561 6 196 0 288 -31 535 -12 94 -24
222 -28 285 l-6 115 -198 -620 c-109 -341 -216 -674 -237 -740 -21 -66 -89
-277 -150 -470 -62 -192 -116 -362 -120 -376 -8 -25 -6 -27 38 -33 105 -14
176 -77 210 -186 24 -78 21 -299 -8 -500 -19 -131 -24 -221 -30 -570 -9 -516
-11 -524 -140 -644 -141 -130 -351 -201 -664 -224 l-99 -7 -39 -120 c-21 -66
-49 -154 -62 -195 -32 -102 -389 -1218 -642 -2005 -202 -631 -254 -798 -250
-802 2 -2 2689 1882 5971 4187 l5966 4191 352 -246 c194 -135 361 -252 372
-260 11 -7 378 -264 815 -569 437 -306 800 -559 805 -564 6 -5 57 -41 115 -80
58 -40 139 -96 180 -126 41 -29 125 -87 185 -129 61 -42 115 -81 121 -86 6 -5
53 -37 105 -72 52 -35 99 -68 105 -74 6 -5 69 -50 140 -98 71 -49 176 -122
234 -162 58 -41 141 -99 185 -130 44 -31 114 -80 155 -109 144 -102 385 -270
445 -309 33 -22 62 -43 65 -47 3 -3 37 -27 75 -52 39 -26 100 -68 136 -95 37
-26 77 -55 89 -63 12 -8 41 -29 64 -46 22 -17 59 -42 81 -57 22 -14 92 -62
155 -106 63 -45 138 -96 165 -115 28 -19 95 -66 150 -105 55 -39 123 -86 150
-105 28 -19 73 -51 100 -71 28 -20 68 -48 90 -63 22 -15 91 -63 153 -107 63
-44 137 -96 165 -116 213 -147 266 -184 442 -309 112 -80 309 -216 353 -246
30 -19 59 -39 65 -45 11 -9 110 -78 271 -189 28 -20 163 -114 299 -210 137
-96 258 -182 270 -190 12 -8 883 -617 1935 -1352 1052 -736 1917 -1338 1922
-1338 4 0 10 -4 12 -8 2 -7 121 -92 225 -162 11 -8 86 -60 165 -116 78 -55
149 -104 155 -108 13 -7 9 9 -14 64 -3 8 -8 23 -10 33 -1 10 -16 60 -33 110
-34 106 -234 737 -506 1599 -104 329 -192 594 -198 591 -5 -3 -6 -1 -2 6 4 6
-2 39 -13 74 -11 34 -44 141 -75 237 -30 96 -101 319 -156 495 -56 176 -112
354 -125 395 -13 41 -53 167 -89 280 -36 113 -362 1146 -726 2295 -363 1150
-674 2131 -690 2180 -16 50 -110 349 -210 665 -100 316 -183 576 -185 578 -5
6 -87 -153 -131 -256 -24 -58 -61 -133 -81 -166 -50 -83 -189 -220 -294 -289
-109 -72 -195 -107 -372 -153 -177 -44 -347 -56 -467 -30 -94 20 -124 41 -128
89 -3 31 3 43 40 83 45 49 102 91 183 136 l50 28 -54 0 c-30 0 -122 -7 -205
-17 -190 -21 -601 -24 -699 -5 -38 7 -123 35 -190 63 -268 111 -465 180 -682
238 -225 61 -369 82 -596 88 -219 6 -337 -4 -505 -43 -217 -51 -323 -64 -569
-74 -267 -10 -330 -22 -575 -110 -476 -171 -1252 -339 -1724 -371 -155 -11
-197 -10 -441 10 -560 46 -788 84 -1056 176 -366 126 -698 373 -990 735 -209
260 -298 448 -384 815 -87 374 -110 458 -171 629 -83 233 -121 375 -136 509
-9 84 -9 110 1 120 21 21 280 14 382 -11 243 -60 405 -192 543 -445 96 -176
117 -207 210 -305 240 -254 524 -393 1136 -555 277 -74 399 -115 580 -193 508
-222 715 -278 1025 -277 135 0 191 5 273 22 201 42 385 115 572 225 77 45 248
161 260 176 3 3 48 40 100 81 84 67 116 98 163 159 15 20 109 132 122 146 5 6
35 41 65 78 30 37 69 84 87 104 17 20 30 39 27 44 -11 17 -116 80 -172 103
-125 51 -329 67 -567 45 -303 -28 -427 -33 -543 -22 -64 6 -225 21 -357 32
-615 52 -844 90 -1175 195 -463 147 -763 295 -1040 515 -106 85 -297 280 -373
382 -268 359 -421 796 -467 1330 l-12 136 42 62 c66 97 93 172 94 262 1 42 -2
79 -5 82 -8 8 -186 16 -219 10z m-8015 -8834 c387 -26 655 -81 845 -173 321
-156 429 -585 268 -1062 -72 -216 -201 -434 -346 -587 -140 -147 -211 -184
-447 -232 -654 -133 -1219 -56 -1399 190 -62 87 -70 142 -73 549 -3 310 -7
388 -28 565 -57 464 -26 631 128 695 51 21 205 43 357 51 69 3 127 8 129 10 9
8 421 3 566 -6z"/>
</g>
</svg>
